<?xml version="1.0" encoding="iso-8859-1"?>
<!-- Generator: Adobe Illustrator 19.0.0, SVG Export Plug-In . SVG Version: 6.00 Build 0)  -->
<svg version="1.1" id="Layer_1" xmlns="http://www.w3.org/2000/svg" xmlns:xlink="http://www.w3.org/1999/xlink" x="0px" y="0px"
	 viewBox="0 0 488 488" style="enable-background:new 0 0 488 488;" xml:space="preserve">
<path style="fill:#5E6664;" d="M204,308c0,8.8-6.4,12-15.2,12H46.4c-8,0-18.4-3.2-18.4-12v-43.2C28,256,38.4,248,46.4,248h142.4
	c8.8,0,15.2,8,15.2,16.8L204,308L204,308z"/>
<path style="fill:#2F423F;" d="M28,264.8C28,256,38.4,248,46.4,248h142.4c8.8,0,15.2,8,15.2,16.8V308c0,8.8-6.4,12-15.2,12"/>
<g>
	<path style="fill:#CE3838;" d="M236,175.2c0,48-39.2,88.8-88,88.8H87.2C39.2,264,4,223.2,4,175.2v-84C4,43.2,39.2,0,87.2,0H148
		c48,0,88,43.2,88,91.2V175.2z"/>
	<path style="fill:#CE3838;" d="M201.6,244.8c-19.2,15.2-44.8,14.4-56.8-1.6l-15.2-20c-12-15.2-6.4-40,13.6-55.2l33.6-25.6
		C196,128,221.6,128,233.6,144l15.2,20c12,15.2,6.4,40-13.6,55.2L201.6,244.8z"/>
</g>
<path style="fill:#F77272;" d="M4,72c0,40,30.4,72,68,72h100c37.6,0,63.2-32,63.2-72l0,0c0-40-25.6-72-63.2-72H72C34.4,0,4,32,4,72
	L4,72z"/>
<path style="fill:#E55757;" d="M172,0c40,0,63.2,36,63.2,76l0,0c0,40-26.4,68-63.2,68H72c-37.6,0-66.4-24-66.4-64l0,0"/>
<rect x="84" y="280" style="fill:#FFCD50;" width="64" height="24"/>
<polyline style="fill:#EAAD34;" points="84,280 148,280 148,304 "/>
<path style="fill:#5E6664;" d="M460,432c0-8.8-7.2-16-16-16H300c-8.8,0-16,7.2-16,16v40c0,8.8,7.2,16,16,16h144c8.8,0,16-7.2,16-16
	V432z"/>
<path style="fill:#2F423F;" d="M460,432c0-8.8-7.2-16-16-16H299.2c-8.8,0-15.2,8-15.2,16.8V476c0,8.8,7.2,12,16,12"/>
<g>
	<path style="fill:#CE3838;" d="M252,343.2c0,48,39.2,88.8,88,88.8h60.8c48,0,83.2-40.8,83.2-88.8v-84c0-48-35.2-83.2-83.2-83.2H340
		c-48,0-88,35.2-88,83.2V343.2z"/>
	<path style="fill:#CE3838;" d="M286.4,412.8c19.2,15.2,44.8,14.4,56.8-1.6l15.2-20c12-15.2,6.4-40-13.6-55.2l-33.6-25.6
		c-19.2-14.4-44.8-13.6-56.8,1.6l-15.2,20c-12,15.2-6.4,40,13.6,55.2L286.4,412.8z"/>
</g>
<path style="fill:#F77272;" d="M252,248c0,40,30.4,72,68,72h100c37.6,0,63.2-32,63.2-72l0,0c0-40-25.6-72-63.2-72H320
	C282.4,176,252,208,252,248L252,248z"/>
<path style="fill:#E55757;" d="M320,176c-37.6,0-68.8,30.4-68.8,70.4l0,0c0,40,31.2,73.6,68.8,73.6h100c37.6,0,62.4-32,62.4-72l0,0"
	/>
<rect x="340" y="448" style="fill:#FFCD50;" width="64" height="24"/>
<polyline style="fill:#EAAD34;" points="404,448 340,448 340,472 "/>
<g>
</g>
<g>
</g>
<g>
</g>
<g>
</g>
<g>
</g>
<g>
</g>
<g>
</g>
<g>
</g>
<g>
</g>
<g>
</g>
<g>
</g>
<g>
</g>
<g>
</g>
<g>
</g>
<g>
</g>
</svg>
