<?xml version="1.0" encoding="iso-8859-1"?>
<!-- Generator: Adobe Illustrator 19.0.0, SVG Export Plug-In . SVG Version: 6.00 Build 0)  -->
<svg version="1.1" id="Layer_1" xmlns="http://www.w3.org/2000/svg" xmlns:xlink="http://www.w3.org/1999/xlink" x="0px" y="0px"
	 viewBox="0 0 512 512" style="enable-background:new 0 0 512 512;" xml:space="preserve">
<g transform="translate(1)">
	<path style="fill:#FD9808;" d="M390.787,171.52L98.947,463.36l14.507,14.507l295.253-295.253L390.787,171.52z"/>
	<g>
		<path style="fill:#FFDD09;" d="M50.307,432.64l296.107-296.107l41.813,42.667L92.973,474.453L50.307,432.64z"/>
		<path style="fill:#FFDD09;" d="M68.227,442.88l-41.813-42.667L321.667,104.96l42.667,42.667L68.227,442.88z"/>
		<path style="fill:#FFDD09;" d="M357.507,69.12l84.48,84.48l52.053-52.053c11.093-11.093,11.093-29.867,0-40.96l-43.52-43.52
			c-11.093-11.093-29.867-11.093-40.96,0L357.507,69.12z"/>
	</g>
	<path style="fill:#FD9808;" d="M442.84,153.6l52.053-52.053c11.093-11.093,11.093-29.867,0-40.96l-0.853-0.853
		c0.853,8.533-1.707,17.92-8.533,24.747l-51.2,52.053"/>
	<path style="fill:#FCC309;" d="M25.56,401.067L25.56,401.067l-17.92,102.4l102.4-17.92L25.56,401.067z"/>
	<path style="fill:#FD9808;" d="M406.147,189.44l-84.48-84.48l35.84-35.84l84.48,84.48L406.147,189.44z"/>
	<g>
		<path style="fill:#FFDD09;" d="M441.133,442.027c-10.24,10.24-26.453,10.24-35.84,0c-9.387-10.24-10.24-26.453,0-35.84
			c10.24-9.387,26.453-10.24,35.84,0S450.52,431.787,441.133,442.027 M499.16,415.573L339.587,256l-84.48,84.48L414.68,500.053
			c4.267,4.267,11.947,4.267,16.213,0l68.267-68.267C503.427,427.52,503.427,419.84,499.16,415.573"/>
		<path style="fill:#FFDD09;" d="M255.107,171.52L97.24,13.653c-6.827-6.827-17.067-6.827-23.893,0L12.76,74.24
			c-6.827,6.827-6.827,17.067,0,23.893L170.627,256L255.107,171.52z"/>
	</g>
	<path style="fill:#FFFFFF;" d="M97.24,13.653c-6.827-6.827-17.067-6.827-23.893,0L12.76,74.24c-6.827,6.827-6.827,17.067,0,23.893
		L29.827,115.2c-5.973-6.827-5.973-17.067,0-23.893L90.413,30.72c6.827-6.827,17.067-6.827,23.893,0"/>
	<path style="fill:#FD9808;" d="M412.973,498.347c6.827,6.827,17.067,6.827,23.893,0l60.587-60.587
		c6.827-6.827,6.827-17.067,0-23.893L480.387,396.8c5.973,6.827,5.973,17.067,0,23.893L419.8,481.28
		c-6.827,6.827-17.067,6.827-23.893,0L412.973,498.347z"/>
	<path d="M30.68,124.587c-2.56,0-4.267-0.853-5.973-2.56c-3.413-3.413-3.413-8.533,0-11.947l35.84-35.84
		c3.413-3.413,8.533-3.413,11.947,0c3.413,3.413,3.413,8.533,0,11.947l-35.84,35.84C34.947,123.733,33.24,124.587,30.68,124.587z"/>
	<path d="M54.573,148.48c-2.56,0-4.267-0.853-5.973-2.56c-3.413-3.413-3.413-8.533,0-11.947l23.893-23.893
		c3.413-3.413,8.533-3.413,11.947,0s3.413,8.533,0,11.947L60.547,145.92C59.693,147.627,57.133,148.48,54.573,148.48z"/>
	<path d="M79.32,173.227c-2.56,0-4.267-0.853-5.973-2.56c-3.413-3.413-3.413-8.533,0-11.947l35.84-35.84
		c3.413-3.413,8.533-3.413,11.947,0s3.413,8.533,0,11.947l-35.84,35.84C83.587,172.373,81.027,173.227,79.32,173.227z"/>
	<path d="M103.213,197.12c-2.56,0-4.267-0.853-5.973-2.56c-3.413-3.413-3.413-8.533,0-11.947l23.893-23.893
		c3.413-3.413,8.533-3.413,11.947,0s3.413,8.533,0,11.947l-23.893,23.893C107.48,196.267,105.773,197.12,103.213,197.12z"/>
	<path d="M127.107,221.013c-2.56,0-4.267-0.853-5.973-2.56c-3.413-3.413-3.413-8.533,0-11.947l35.84-35.84
		c3.413-3.413,8.533-3.413,11.947,0s3.413,8.533,0,11.947l-35.84,35.84C131.373,220.16,129.667,221.013,127.107,221.013z"/>
	<path d="M151.853,244.907c-2.56,0-4.267-0.853-5.973-2.56c-3.413-3.413-3.413-8.533,0-11.947l23.893-23.893
		c3.413-3.413,8.533-3.413,11.947,0s3.413,8.533,0,11.947l-23.893,23.893C156.12,244.053,153.56,244.907,151.853,244.907z"/>
	<path d="M272.173,366.08c-2.56,0-4.267-0.853-5.973-2.56c-3.413-3.413-3.413-8.533,0-11.947l35.84-35.84
		c3.413-3.413,8.533-3.413,11.947,0c3.413,3.413,3.413,8.533,0,11.947l-35.84,35.84C276.44,365.227,274.733,366.08,272.173,366.08z"
		/>
	<path d="M296.067,389.973c-2.56,0-4.267-0.853-5.973-2.56c-3.413-3.413-3.413-8.533,0-11.947l23.893-23.893
		c3.413-3.413,8.533-3.413,11.947,0c3.413,3.413,3.413,8.533,0,11.947l-23.893,23.893
		C300.333,389.12,298.627,389.973,296.067,389.973z"/>
	<path d="M320.813,413.867c-2.56,0-4.267-0.853-5.973-2.56c-3.413-3.413-3.413-8.533,0-11.947l35.84-35.84
		c3.413-3.413,8.533-3.413,11.947,0c3.413,3.413,3.413,8.533,0,11.947l-35.84,35.84C325.08,413.013,322.52,413.867,320.813,413.867z
		"/>
	<path d="M423.213,457.387c-8.533,0-17.067-3.413-23.893-10.24c-13.653-13.653-13.653-34.987,0-47.787
		c13.653-13.653,34.987-13.653,47.787,0c13.653,13.653,13.653,34.987,0,47.787C440.28,453.973,431.747,457.387,423.213,457.387z
		 M423.213,407.04c-4.267,0-8.533,1.707-11.947,5.12c-6.827,6.827-6.827,17.067,0,23.893s17.067,6.827,23.893,0
		s6.827-17.067,0-23.893C431.747,408.747,427.48,407.04,423.213,407.04z"/>
	<path d="M110.04,494.08c-2.56,0-4.267-0.853-5.973-2.56L61.4,448.853c-3.413-3.413-3.413-8.533,0-11.947l296.107-295.253
		c3.413-3.413,8.533-3.413,11.947,0l42.667,41.813c1.707,1.707,2.56,3.413,2.56,5.973s-0.853,4.267-2.56,5.973L116.013,491.52
		C115.16,493.227,112.6,494.08,110.04,494.08z M80.173,442.88l29.867,29.867L393.347,189.44l-29.867-29.867L80.173,442.88z"/>
	<path d="M68.227,451.413c-2.56,0-4.267-0.853-5.973-2.56L20.44,406.187c-3.413-3.413-3.413-8.533,0-11.947L315.693,98.987
		c3.413-3.413,8.533-3.413,11.947,0l42.667,42.667c3.413,3.413,3.413,8.533,0,11.947L74.2,448.853
		C72.493,450.56,70.787,451.413,68.227,451.413z M38.36,401.067l29.867,29.867l283.307-283.307l-29.867-29.867L38.36,401.067z"/>
	<path d="M441.987,162.133c-2.56,0-4.267-0.853-5.973-2.56l-84.48-84.48c-1.707-1.707-2.56-3.413-2.56-5.973
		c0-2.56,0.853-4.267,2.56-5.973l52.053-52.053C410.413,4.267,419.8,0,430.04,0c10.24,0,19.627,4.267,26.453,11.093l43.52,43.52
		c14.507,14.507,14.507,38.4,0,52.907l-52.053,52.053C446.253,161.28,444.547,162.133,441.987,162.133z M369.453,69.12
		l72.533,72.533l46.08-46.08c7.68-7.68,7.68-21.333,0-29.013l-43.52-43.52c-7.68-7.68-21.333-7.68-29.013,0L369.453,69.12z"/>
	<path d="M7.64,512c-2.56,0-4.267-0.853-5.973-2.56s-2.56-4.267-2.56-7.68l17.92-102.4c0.853-3.413,2.56-5.973,5.973-6.827
		s5.973,0,8.533,1.707l84.48,84.48c2.56,2.56,3.413,5.973,1.707,8.533c-0.853,3.413-3.413,5.12-6.827,5.973L9.347,512
		C8.493,512,8.493,512,7.64,512z M31.533,418.133l-12.8,74.24l74.24-12.8L31.533,418.133z"/>
	<path d="M406.147,197.973c-2.56,0-4.267-0.853-5.973-2.56l-84.48-84.48c-1.707-1.707-2.56-3.413-2.56-5.973
		c0-2.56,0.853-4.267,2.56-5.973l35.84-35.84c3.413-3.413,8.533-3.413,11.947,0l84.48,84.48c1.707,1.707,2.56,3.413,2.56,5.973
		s-0.853,4.267-2.56,5.973l-35.84,35.84C410.413,197.12,407.853,197.973,406.147,197.973z M333.613,104.96l72.533,72.533
		L430.04,153.6l-72.533-72.533L333.613,104.96z"/>
	<path d="M170.627,264.533c-2.56,0-4.267-0.853-5.973-2.56L6.787,104.107c-10.24-10.24-10.24-26.453,0-35.84L67.373,7.68
		c9.387-9.387,26.453-9.387,35.84,0L261.08,165.547c3.413,3.413,3.413,8.533,0,11.947l-84.48,84.48
		C174.893,263.68,173.187,264.533,170.627,264.533z M85.293,17.067c-2.56,0-4.267,0.853-5.973,2.56L18.733,80.213
		c-3.413,3.413-3.413,8.533,0,11.947l151.893,151.893l72.533-72.533L91.267,19.627C89.56,17.92,87,17.067,85.293,17.067z"/>
	<path d="M423.213,512c-5.12,0-10.24-1.707-14.507-5.973L249.133,346.453c-3.413-3.413-3.413-8.533,0-11.947l84.48-84.48
		c3.413-3.413,8.533-3.413,11.947,0L505.133,409.6c7.68,7.68,7.68,20.48,0,28.16l-68.267,68.267
		C433.453,510.293,428.333,512,423.213,512z M267.053,340.48l153.6,153.6c0.853,0.853,3.413,0.853,4.267,0l68.267-68.267
		c0.853-0.853,0.853-3.413,0-4.267l0,0l-153.6-153.6L267.053,340.48z"/>
</g>
<g>
</g>
<g>
</g>
<g>
</g>
<g>
</g>
<g>
</g>
<g>
</g>
<g>
</g>
<g>
</g>
<g>
</g>
<g>
</g>
<g>
</g>
<g>
</g>
<g>
</g>
<g>
</g>
<g>
</g>
</svg>
