<?xml version="1.0" encoding="iso-8859-1"?>
<!-- Generator: Adobe Illustrator 19.0.0, SVG Export Plug-In . SVG Version: 6.00 Build 0)  -->
<svg version="1.1" id="Layer_1" xmlns="http://www.w3.org/2000/svg" xmlns:xlink="http://www.w3.org/1999/xlink" x="0px" y="0px"
	 viewBox="0 0 512 512" style="enable-background:new 0 0 512 512;" xml:space="preserve">
<rect x="58.183" y="363.079" transform="matrix(0.7071 0.7071 -0.7071 0.7071 326.7563 64.7862)" style="fill:#D92622;" width="53.983" height="127.487"/>
<path style="fill:#EA4820;" d="M2.462,446.142l63.396,63.396c3.282,3.282,8.603,3.282,11.887,0c3.282-3.282,3.282-8.605,0-11.887
	l-63.396-63.396c-3.282-3.282-8.603-3.282-11.887,0C-0.82,437.539-0.82,442.86,2.462,446.142z"/>
<polygon style="fill:#41BBBE;" points="512,0 512,93.235 175.51,395.308 130.252,365.899 "/>
<polygon style="fill:#A0DDDF;" points="418.765,0 511.999,0 138.177,373.824 116.691,336.489 "/>
<g>
	
		<rect x="117.408" y="294.66" transform="matrix(0.7071 -0.7071 0.7071 0.7071 -227.8277 205.5588)" style="fill:#EA4820;" width="33.62" height="166.263"/>
	
		<rect x="399.827" y="363.075" transform="matrix(-0.7071 0.7071 -0.7071 -0.7071 1030.4302 426.8195)" style="fill:#EA4820;" width="53.983" height="127.487"/>
</g>
<path style="fill:#F76720;" d="M509.538,446.142l-63.396,63.396c-3.282,3.282-8.603,3.282-11.887,0
	c-3.282-3.282-3.282-8.605,0-11.887l63.396-63.396c3.282-3.282,8.603-3.282,11.887,0C512.82,437.539,512.82,442.86,509.538,446.142z
	"/>
<polygon style="fill:#71CCCE;" points="0,0 0,93.235 336.489,395.308 381.748,365.899 "/>
<polygon style="fill:#D0EEEF;" points="93.235,0 0,0 373.823,373.824 395.308,336.489 "/>
<rect x="360.972" y="294.647" transform="matrix(-0.7071 -0.7071 0.7071 -0.7071 377.784 912.0397)" style="fill:#F76720;" width="33.62" height="166.263"/>
<g>
</g>
<g>
</g>
<g>
</g>
<g>
</g>
<g>
</g>
<g>
</g>
<g>
</g>
<g>
</g>
<g>
</g>
<g>
</g>
<g>
</g>
<g>
</g>
<g>
</g>
<g>
</g>
<g>
</g>
</svg>
