<?xml version="1.0" encoding="iso-8859-1"?>
<!-- Generator: Adobe Illustrator 19.0.0, SVG Export Plug-In . SVG Version: 6.00 Build 0)  -->
<svg version="1.1" id="Layer_1" xmlns="http://www.w3.org/2000/svg" xmlns:xlink="http://www.w3.org/1999/xlink" x="0px" y="0px"
	 viewBox="0 0 510.977 510.977" style="enable-background:new 0 0 510.977 510.977;" xml:space="preserve">
<g transform="translate(0 -1)">
	<path style="fill:#E64C3C;" d="M255.22,106.177c19.535-49.77,61.325-87.79,113.231-87.79c43.705,0,79.625,23.111,108.871,54.44
		c38.859,41.622,56.17,137.216-15.863,209.24c-36.546,36.546-205.815,212.524-205.815,212.524S86.384,318.613,49.838,282.066
		c-72.033-72.024-55.578-167.618-15.863-209.24c29.581-31.002,65.165-54.44,108.871-54.44
		C194.751,18.386,235.685,56.407,255.22,106.177"/>
	<polygon style="fill:#BDC3C7;" points="193.181,239.084 316.767,239.084 316.767,203.774 193.181,203.774 	"/>
	<path style="fill:#546A79;" d="M126.977,265.073L126.977,265.073c-12.191,0-22.069-9.878-22.069-22.069v-44.138
		c0-12.191,9.878-22.069,22.069-22.069c12.191,0,22.069,9.878,22.069,22.069v44.138
		C149.046,255.195,139.168,265.073,126.977,265.073"/>
	<path style="fill:#38454F;" d="M171.115,282.728L171.115,282.728c-12.191,0-22.069-9.878-22.069-22.069v-79.448
		c0-12.191,9.878-22.069,22.069-22.069s22.069,9.878,22.069,22.069v79.448C193.184,272.85,183.306,282.728,171.115,282.728"/>
	<path style="fill:#546A79;" d="M382.977,176.797L382.977,176.797c12.191,0,22.069,9.878,22.069,22.069v44.138
		c0,12.191-9.878,22.069-22.069,22.069s-22.069-9.878-22.069-22.069v-44.138C360.908,186.676,370.786,176.797,382.977,176.797"/>
	<path style="fill:#38454F;" d="M338.839,159.142L338.839,159.142c12.191,0,22.069,9.878,22.069,22.069v79.448
		c0,12.191-9.878,22.069-22.069,22.069c-12.191,0-22.069-9.878-22.069-22.069v-79.448
		C316.77,169.02,326.649,159.142,338.839,159.142"/> 
</g>
<g>
</g>
<g>
</g>
<g>
</g>
<g>
</g>
<g>
</g>
<g>
</g>
<g>
</g>
<g>
</g>
<g>
</g>
<g>
</g>
<g>
</g>
<g>
</g>
<g>
</g>
<g>
</g>
<g>
</g>
</svg>
