<?xml version="1.0" encoding="iso-8859-1"?>
<!-- Generator: Adobe Illustrator 19.0.0, SVG Export Plug-In . SVG Version: 6.00 Build 0)  -->
<svg fill='#64ffda' version="1.1" id="Capa_1" xmlns="http://www.w3.org/2000/svg" xmlns:xlink="http://www.w3.org/1999/xlink" x="0px" y="0px"
	 viewBox="0 0 482.842 482.842" style="enable-background:new 0 0 482.842 482.842;" xml:space="preserve">
<g>
	<path d="M482.842,365.758V0H0v365.758h188.51l-34.875,96.538h-36.633v20.546h248.835v-20.546h-36.637l-34.876-96.538H482.842z
		 M20.546,20.546h441.749v324.665H20.546V20.546z M307.353,462.295H175.482l34.878-96.538h62.116L307.353,462.295z"/>
	<path d="M335.199,125.396l54.18,58.81l-51.728,56.151l-15.109-13.925l38.896-42.226L320.09,139.32L335.199,125.396z
		 M147.638,125.396l-54.171,58.81l51.723,56.151l15.109-13.925l-38.901-42.226l41.349-44.886L147.638,125.396z M205.9,263.537
		l19.965,4.856l40.416-166.177l-19.965-4.856L205.9,263.537z"/>
</g>
<g>
</g>
<g>
</g>
<g>
</g>
<g>
</g>
<g>
</g>
<g>
</g>
<g>
</g>
<g>
</g>
<g>
</g>
<g>
</g>
<g>
</g>
<g>
</g>
<g>
</g>
<g>
</g>
<g>
</g>
</svg>
