<svg height="512pt" viewBox="0 -19 512 512" width="512pt" fill='#64ffda' xmlns="http://www.w3.org/2000/svg"><path d="m479.261719 348.898438-17.476563-25.796876-7.617187-117.582031c13.183593-5.488281 22.480469-18.503906 22.480469-33.652343 0-14.847657-8.933594-27.644532-21.703126-33.3125 5.039063-10.371094 7.765626-21.84375 7.765626-33.570313 0-42.359375-34.460938-76.820313-76.820313-76.820313-19.304687 0-36.957031 7.175782-50.464844 18.976563-15.390625-28.070313-45.222656-47.140625-79.425781-47.140625s-64.035156 19.074219-79.425781 47.140625c-13.511719-11.800781-31.160157-18.976563-50.464844-18.976563-42.359375 0-76.820313 34.460938-76.820313 76.820313 0 11.726563 2.726563 23.199219 7.765626 33.570313-12.773438 5.671874-21.703126 18.464843-21.703126 33.3125 0 15.148437 9.292969 28.164062 22.476563 33.652343l-7.613281 117.585938-17.476563 25.792969c-18.679687 3.96875-32.738281 20.585937-32.738281 40.429687v16.480469c0 8.316406 6.742188 15.058594 15.058594 15.058594h93.410156c-2.058594 5.292968-3.203125 11.035156-3.203125 17.046874v20.132813c0 8.316406 6.742187 15.058594 15.058594 15.058594h271.351562c8.316407 0 15.058594-6.742188 15.058594-15.058594v-20.132813c0-6.011718-1.144531-11.753906-3.203125-17.046874h93.410156c8.316406 0 15.058594-6.742188 15.058594-15.058594v-16.480469c0-19.84375-14.058594-36.460937-32.738281-40.429687zm-102.644531 89.015624v5.074219h-241.234376v-5.074219c0-9.398437 7.648438-17.046874 17.046876-17.046874h207.136718c9.402344 0 17.050782 7.648437 17.050782 17.046874zm-304.828126-259.726562c-3.484374 0-6.320312-2.835938-6.320312-6.320312 0-3.484376 2.835938-6.320313 6.320312-6.320313h77.21875c-.355468 2.175781-.550781 4.40625-.550781 6.683594 0 2.023437.15625 4.011719.4375 5.957031zm7.617188-73.203125c0-25.75 20.949219-46.703125 46.703125-46.703125 16.882813 0 31.699219 9.003906 39.90625 22.460938-.347656 3.210937-.53125 6.472656-.53125 9.773437 0 10.042969 1.695313 19.933594 4.894531 29.277344-1.914062 5.710937-4.921875 11.03125-8.875 15.636719h-70.789062c-7.234375-8.425782-11.308594-19.25-11.308594-30.445313zm176.59375-74.867187c33.304688 0 60.398438 27.09375 60.398438 60.398437 0 15-5.652344 29.484375-15.648438 40.535156h-89.5c-9.996094-11.050781-15.648438-25.535156-15.648438-40.535156 0-33.304687 27.09375-60.398437 60.398438-60.398437zm129.890625 28.164062c25.753906 0 46.703125 20.953125 46.703125 46.703125 0 11.199219-4.074219 22.019531-11.308594 30.445313h-70.785156c-3.957031-4.605469-6.964844-9.925782-8.875-15.636719 3.199219-9.34375 4.894531-19.234375 4.894531-29.277344 0-3.300781-.183593-6.5625-.53125-9.773437 8.203125-13.457032 23.019531-22.460938 39.902344-22.460938zm-305.886719 270.851562 7.828125-120.828124h76.554688l5.933593 91.617187-3.113281 48.070313h-97.476562l7.714843-11.382813c1.503907-2.21875 2.386719-4.800781 2.558594-7.476563zm344.164063-120.828124 7.828125 120.828124c.171875 2.675782 1.054687 5.257813 2.558594 7.476563l7.714843 11.382813h-97.476562l-3.109375-48.070313 5.929687-91.617187zm-108.507813 155.851562c.171875 2.671875 1.058594 5.253906 2.5625 7.472656l12.953125 19.121094h-150.351562l12.953125-19.121094c1.503906-2.21875 2.390625-4.800781 2.5625-7.472656l9.765625-150.746094h99.789062zm-137.085937-191.925781c0-6.097657 4.960937-11.0625 11.0625-11.0625h132.726562c6.101563 0 11.0625 4.960937 11.0625 11.0625 0 6.097656-4.960937 11.058593-11.0625 11.058593h-132.726562c-6.101563 0-11.0625-4.960937-11.0625-11.058593zm261.636719 5.957031h-77.105469c.28125-1.945312.4375-3.933594.4375-5.957031 0-2.277344-.195313-4.507813-.550781-6.683594h77.21875c3.484374 0 6.320312 2.835937 6.320312 6.320313 0 3.484374-2.835938 6.320312-6.320312 6.320312zm-410.09375 211.140625c0-6.1875 5.035156-11.21875 11.222656-11.21875h111.667968l-8.5625 12.640625h-114.328124zm337.4375 1.421875-8.5625-12.640625h111.671874c6.1875 0 11.21875 5.035156 11.21875 11.21875v1.421875zm0 0"/></svg>