<svg width="33" height="33" viewBox="0 0 33 25" fill="none" xmlns="http://www.w3.org/2000/svg">
<g filter="url(#filter0_d_5_25)">
<path d="M12.1006 18.105C12.1006 18.1957 11.9883 18.2682 11.8467 18.2682C11.6855 18.2818 11.5732 18.2093 11.5732 18.105C11.5732 18.0143 11.6855 17.9417 11.8271 17.9417C11.9736 17.9281 12.1006 18.0007 12.1006 18.105ZM10.582 17.9009C10.5479 17.9916 10.6455 18.0959 10.792 18.1231C10.9189 18.1684 11.0654 18.1231 11.0947 18.0324C11.124 17.9417 11.0312 17.8374 10.8848 17.7966C10.7578 17.7648 10.6162 17.8102 10.582 17.9009ZM12.7402 17.8238C12.5986 17.8555 12.501 17.9417 12.5156 18.046C12.5303 18.1367 12.6572 18.1957 12.8037 18.1639C12.9453 18.1322 13.043 18.046 13.0283 17.9553C13.0137 17.8691 12.8818 17.8102 12.7402 17.8238ZM15.9531 0.445312C9.18066 0.445312 4 5.22076 4 11.5109C4 16.5404 7.4082 20.8442 12.2764 22.3589C12.9014 22.4632 13.1211 22.1049 13.1211 21.8101C13.1211 21.529 13.1064 19.978 13.1064 19.0256C13.1064 19.0256 9.68848 19.7058 8.9707 17.6741C8.9707 17.6741 8.41406 16.3544 7.61328 16.0143C7.61328 16.0143 6.49512 15.3023 7.69141 15.3159C7.69141 15.3159 8.90723 15.4066 9.57617 16.4859C10.6455 18.2365 12.4375 17.7331 13.1357 17.4338C13.248 16.7082 13.5654 16.2048 13.917 15.9054C11.1875 15.6243 8.43359 15.2569 8.43359 10.8942C8.43359 9.64701 8.80469 9.02117 9.58594 8.22299C9.45898 7.92821 9.04395 6.71281 9.71289 5.14367C10.7334 4.84889 13.082 6.36814 13.082 6.36814C14.0586 6.11418 15.1084 5.98266 16.1484 5.98266C17.1885 5.98266 18.2383 6.11418 19.2148 6.36814C19.2148 6.36814 21.5635 4.84435 22.584 5.14367C23.2529 6.71734 22.8379 7.92821 22.7109 8.22299C23.4922 9.02571 23.9707 9.65155 23.9707 10.8942C23.9707 15.2705 21.0947 15.6197 18.3652 15.9054C18.8145 16.2637 19.1953 16.944 19.1953 18.0097C19.1953 19.538 19.1807 21.4292 19.1807 21.8011C19.1807 22.0958 19.4053 22.4541 20.0254 22.3498C24.9082 20.8442 28.2188 16.5404 28.2188 11.5109C28.2188 5.22076 22.7256 0.445312 15.9531 0.445312ZM8.74609 16.0868C8.68262 16.1322 8.69727 16.2365 8.78027 16.3227C8.8584 16.3952 8.9707 16.427 9.03418 16.368C9.09766 16.3227 9.08301 16.2184 9 16.1322C8.92188 16.0596 8.80957 16.0279 8.74609 16.0868ZM8.21875 15.7195C8.18457 15.7785 8.2334 15.851 8.33105 15.8964C8.40918 15.9417 8.50684 15.9281 8.54102 15.8646C8.5752 15.8057 8.52637 15.7331 8.42871 15.6878C8.33105 15.6605 8.25293 15.6741 8.21875 15.7195ZM9.80078 17.334C9.72266 17.393 9.75195 17.529 9.86426 17.6152C9.97656 17.7195 10.1182 17.7331 10.1816 17.6605C10.2451 17.6016 10.2158 17.4655 10.1182 17.3793C10.0107 17.275 9.86426 17.2614 9.80078 17.334ZM9.24414 16.6673C9.16602 16.7127 9.16602 16.8306 9.24414 16.9349C9.32227 17.0392 9.4541 17.0846 9.51758 17.0392C9.5957 16.9803 9.5957 16.8623 9.51758 16.758C9.44922 16.6537 9.32227 16.6084 9.24414 16.6673Z" fill="#A8B2D1"/>
</g>
<defs>
<filter id="filter0_d_5_25" x="0" y="0.445312" width="32.2188" height="29.932" filterUnits="userSpaceOnUse" color-interpolation-filters="sRGB">
<feFlood flood-opacity="0" result="BackgroundImageFix"/>
<feColorMatrix in="SourceAlpha" type="matrix" values="0 0 0 0 0 0 0 0 0 0 0 0 0 0 0 0 0 0 127 0" result="hardAlpha"/>
<feOffset dy="4"/>
<feGaussianBlur stdDeviation="2"/>
<feComposite in2="hardAlpha" operator="out"/>
<feColorMatrix type="matrix" values="0 0 0 0 0 0 0 0 0 0 0 0 0 0 0 0 0 0 0.25 0"/>
<feBlend mode="normal" in2="BackgroundImageFix" result="effect1_dropShadow_5_25"/>
<feBlend mode="normal" in="SourceGraphic" in2="effect1_dropShadow_5_25" result="shape"/>
</filter>
</defs>
</svg>
