<?xml version="1.0" encoding="iso-8859-1"?>
<!-- Generator: Adobe Illustrator 16.0.0, SVG Export Plug-In . SVG Version: 6.00 Build 0)  -->
<!DOCTYPE svg PUBLIC "-//W3C//DTD SVG 1.1//EN" "http://www.w3.org/Graphics/SVG/1.1/DTD/svg11.dtd">
<svg version="1.1" fill='#64ffda' id="Capa_1" xmlns="http://www.w3.org/2000/svg" xmlns:xlink="http://www.w3.org/1999/xlink" x="0px" y="0px"
	 width="77.952px" height="77.952px" viewBox="0 0 77.952 77.952" style="enable-background:new 0 0 77.952 77.952;"
	 xml:space="preserve">
<g>
	<g>
		<g>
			<path d="M39.194,0C23.962,0,11.418,12.32,11.418,27.776c0,20.608,14.56,23.294,15.456,34.272l0,0l0.672,6.271
				c0.896,6.05,5.824,9.634,11.424,9.634c5.824,0,10.303-3.14,11.422-9.634l0.672-6.271l0,0
				c1.121-10.978,15.457-13.664,15.457-34.272C66.971,12.544,54.428,0,39.194,0z M48.602,58.688
				c-0.672,1.793-1.344,9.187-1.344,9.187c-0.896,4.479-4.256,6.721-8.064,6.721c-7.168,0-8.064-6.721-8.064-6.721
				s-0.896-7.617-1.344-9.187c-1.12-3.358-3.808-6.942-6.272-10.08c-4.256-4.928-8.512-10.079-8.512-21.053
				C14.778,14.336,25.754,3.361,39.194,3.361c13.439,0,24.416,10.976,24.416,24.416c0,10.976-4.479,16.127-8.512,21.055
				C52.411,51.744,49.274,56.449,48.602,58.688z"/>
			<path d="M51.291,27.104c0-0.672-0.226-1.119-0.226-1.791l4.479-4.032l-2.688-4.479l-5.6,2.016
				c-0.447-0.448-0.896-0.672-1.344-1.12l0.445-5.824L41.43,10.53l-2.686,5.377c-0.672,0-1.12,0.224-1.792,0.224l-4.032-4.48
				l-4.48,2.688l2.016,5.601c-0.448,0.447-0.896,0.896-1.12,1.344l-5.824-0.448l-1.344,4.929l5.376,2.688
				c0,0.672,0.224,1.119,0.224,1.791l-4.48,4.031l2.688,4.479l5.6-2.016c0.448,0.448,0.896,0.672,1.344,1.12l-0.448,5.824
				l4.928,1.344l2.688-5.377c0.672,0,1.119-0.222,1.791-0.222l4.033,4.479l4.479-2.688l-2.24-5.376
				c0.449-0.447,0.896-0.896,1.121-1.345l5.824,0.448l1.344-4.928L51.291,27.104z M42.332,32.93
				c-2.913,1.566-6.497,0.672-8.289-2.24s-0.672-6.496,2.24-8.288c2.912-1.792,6.495-0.673,8.286,2.239
				C46.139,27.553,45.018,31.361,42.332,32.93z"/>
		</g>
	</g>
</g>
<g>
</g>
<g>
</g>
<g>
</g>
<g>
</g>
<g>
</g>
<g>
</g>
<g>
</g>
<g>
</g>
<g>
</g>
<g>
</g>
<g>
</g>
<g>
</g>
<g>
</g>
<g>
</g>
<g>
</g>
</svg>
