<svg width="30" height="29" viewBox="0 0 30 29" fill="none" xmlns="http://www.w3.org/2000/svg">
<g filter="url(#filter0_d_5_29)">
<path d="M14.946 5.24513C11.8406 5.24513 9.33569 7.57163 9.33569 10.456C9.33569 13.3403 11.8406 15.6668 14.946 15.6668C18.0515 15.6668 20.5564 13.3403 20.5564 10.456C20.5564 7.57163 18.0515 5.24513 14.946 5.24513ZM14.946 13.8437C12.9392 13.8437 11.2986 12.3244 11.2986 10.456C11.2986 8.58749 12.9343 7.06824 14.946 7.06824C16.9578 7.06824 18.5935 8.58749 18.5935 10.456C18.5935 12.3244 16.9529 13.8437 14.946 13.8437ZM22.0945 5.03198C22.0945 5.70771 21.5085 6.24739 20.7859 6.24739C20.0584 6.24739 19.4773 5.70318 19.4773 5.03198C19.4773 4.36079 20.0632 3.81658 20.7859 3.81658C21.5085 3.81658 22.0945 4.36079 22.0945 5.03198ZM25.8103 6.26553C25.7273 4.63743 25.3269 3.19527 24.0427 2.00708C22.7634 0.818882 21.2107 0.447005 19.4578 0.365373C17.6511 0.270136 12.2361 0.270136 10.4294 0.365373C8.6814 0.44247 7.12866 0.814347 5.84448 2.00254C4.5603 3.19074 4.16479 4.63289 4.0769 6.26099C3.97437 7.93898 3.97437 12.9684 4.0769 14.6464C4.15991 16.2745 4.5603 17.7166 5.84448 18.9048C7.12866 20.093 8.67651 20.4649 10.4294 20.5465C12.2361 20.6418 17.6511 20.6418 19.4578 20.5465C21.2107 20.4694 22.7634 20.0976 24.0427 18.9048C25.322 17.7166 25.7224 16.2745 25.8103 14.6464C25.9128 12.9684 25.9128 7.94351 25.8103 6.26553ZM23.4763 16.4468C23.0955 17.3357 22.3582 18.0205 21.3962 18.3788C19.9558 18.9094 16.5378 18.7869 14.946 18.7869C13.3542 18.7869 9.9314 18.9048 8.49585 18.3788C7.53882 18.025 6.80151 17.3402 6.41577 16.4468C5.84448 15.109 5.97632 11.9344 5.97632 10.456C5.97632 8.97751 5.84937 5.79841 6.41577 4.4651C6.79663 3.57622 7.53394 2.89142 8.49585 2.53315C9.93628 2.00254 13.3542 2.12499 14.946 2.12499C16.5378 2.12499 19.9607 2.00708 21.3962 2.53315C22.3533 2.88688 23.0906 3.57168 23.4763 4.4651C24.0476 5.80295 23.9158 8.97751 23.9158 10.456C23.9158 11.9344 24.0476 15.1135 23.4763 16.4468Z" fill="#A8B2D1"/>
</g>
<defs>
<filter id="filter0_d_5_29" x="0" y="0.293945" width="29.8872" height="28.324" filterUnits="userSpaceOnUse" color-interpolation-filters="sRGB">
<feFlood flood-opacity="0" result="BackgroundImageFix"/>
<feColorMatrix in="SourceAlpha" type="matrix" values="0 0 0 0 0 0 0 0 0 0 0 0 0 0 0 0 0 0 127 0" result="hardAlpha"/>
<feOffset dy="4"/>
<feGaussianBlur stdDeviation="2"/>
<feComposite in2="hardAlpha" operator="out"/>
<feColorMatrix type="matrix" values="0 0 0 0 0 0 0 0 0 0 0 0 0 0 0 0 0 0 0.25 0"/>
<feBlend mode="normal" in2="BackgroundImageFix" result="effect1_dropShadow_5_29"/>
<feBlend mode="normal" in="SourceGraphic" in2="effect1_dropShadow_5_29" result="shape"/>
</filter>
</defs>
</svg>
